<svg id="Calque_1" data-name="Calque 1" xmlns="http://www.w3.org/2000/svg" viewBox="0 0 13 40.91"><defs><style>.cls-1,.cls-2{fill:#fff;}.cls-1{fill-rule:evenodd;}</style></defs><title>texture#fff</title><polygon class="cls-1" points="5.42 27.78 6.5 27.3 6.5 30.81 5.42 34.85 1.67 39.9 0.59 40.91 0 39.91 1.08 33.84 5.42 27.78"/><polygon class="cls-1" points="7.58 27.78 6.5 27.27 6.5 30.81 7.58 34.85 11.38 39.9 12.53 40.91 13 39.89 11.92 33.84 7.58 27.78"/><rect class="cls-2" x="5.96" y="28.79" width="1.15" height="4.04"/><polygon class="cls-1" points="5.42 18.69 6.5 18.21 6.5 21.72 5.42 25.76 1.67 30.81 0.59 31.82 0 30.83 1.08 24.75 5.42 18.69"/><polygon class="cls-1" points="7.58 18.69 6.5 18.18 6.5 21.72 7.58 25.76 11.38 30.81 12.53 31.82 13 30.8 11.92 24.75 7.58 18.69"/><rect class="cls-2" x="5.96" y="19.7" width="1.15" height="4.04"/><polygon class="cls-1" points="5.42 9.6 6.5 9.12 6.5 12.63 5.42 16.67 1.67 21.72 0.59 22.73 0 21.74 1.08 15.66 5.42 9.6"/><polygon class="cls-1" points="7.58 9.6 6.5 9.09 6.5 12.63 7.58 16.67 11.38 21.72 12.53 22.73 13 21.71 11.92 15.66 7.58 9.6"/><rect class="cls-2" x="5.96" y="10.61" width="1.15" height="4.04"/><polygon class="cls-1" points="5.42 0.51 6.5 0.03 6.5 3.54 5.42 7.58 1.67 12.63 0.59 13.64 0 12.65 0.59 6.57 5.42 0.51"/><polygon class="cls-1" points="7.58 0.51 6.5 0 6.5 3.54 7.58 7.58 11.38 12.63 12.53 13.64 13 12.62 12.55 6.57 7.58 0.51"/><rect class="cls-2" x="5.96" y="1.52" width="1.15" height="4.04"/></svg>